<?xml version="1.0" standalone="no"?>
<!DOCTYPE svg PUBLIC "-//W3C//DTD SVG 20010904//EN"
 "http://www.w3.org/TR/2001/REC-SVG-20010904/DTD/svg10.dtd">
<svg version="1.0" xmlns="http://www.w3.org/2000/svg"
 width="700.000000pt" height="700.000000pt" viewBox="0 0 700.000000 700.000000"
 preserveAspectRatio="xMidYMid meet">
<metadata>
Created by potrace 1.11, written by Peter Selinger 2001-2013
</metadata>
<g transform="translate(0.000000,700.000000) scale(0.100000,-0.100000)"
fill="#000000" stroke="none">
<path d="M3397 6563 c-1 0 -67 -4 -147 -7 -80 -4 -157 -8 -170 -11 -14 -2 -61
-6 -105 -10 -44 -4 -82 -8 -85 -10 -3 -1 -30 -6 -61 -9 -31 -4 -67 -9 -80 -11
-13 -3 -39 -7 -59 -10 -50 -7 -64 -10 -162 -34 -48 -11 -98 -23 -110 -25 -35
-7 -289 -86 -323 -101 -16 -7 -55 -23 -85 -35 -182 -75 -356 -181 -388 -239
-38 -68 -33 -146 15 -209 62 -83 177 -95 276 -30 214 142 629 275 1008 323 24
3 62 7 84 10 163 20 674 28 855 13 339 -28 675 -100 923 -198 101 -40 159 -68
310 -148 93 -50 145 -54 215 -19 115 57 136 217 40 303 -52 48 -256 155 -406
215 -89 36 -351 117 -400 125 -21 3 -40 8 -43 10 -8 5 -140 30 -249 48 -99 16
-135 21 -235 32 -33 3 -73 8 -90 10 -63 7 -523 22 -528 17z"/>
<path d="M3357 5844 c-1 -1 -45 -5 -97 -8 -846 -50 -1562 -386 -2080 -976
-118 -134 -281 -370 -297 -430 -38 -143 95 -271 239 -231 60 17 75 32 158 156
286 431 650 723 1140 918 99 40 322 108 400 122 14 3 34 7 45 9 11 2 40 7 65
12 25 4 47 8 50 9 3 1 37 5 75 9 39 5 79 10 89 12 113 21 602 20 713 0 10 -2
45 -7 78 -10 33 -4 116 -18 185 -32 480 -98 903 -316 1240 -639 119 -114 176
-178 318 -360 4 -5 30 -41 57 -80 79 -112 124 -139 212 -133 161 13 227 187
124 324 -9 12 -23 32 -31 44 -41 62 -160 214 -223 285 -326 368 -733 647
-1184 811 -79 28 -285 90 -325 98 -7 1 -38 8 -68 14 -245 51 -459 74 -733 76
-81 1 -149 1 -150 0z"/>
<path d="M3290 5126 c-3 -2 -35 -7 -72 -10 -37 -3 -77 -8 -90 -10 -13 -3 -36
-7 -53 -10 -236 -33 -543 -142 -794 -283 -65 -37 -269 -178 -331 -230 -161
-134 -388 -394 -502 -573 -145 -230 -270 -526 -303 -719 -3 -19 -7 -37 -9 -40
-3 -5 -9 -39 -21 -131 -16 -119 -20 -196 -19 -400 0 -205 6 -352 19 -440 2
-14 7 -50 10 -80 4 -30 8 -64 10 -75 13 -97 18 -130 31 -200 8 -44 17 -96 20
-115 5 -30 34 -160 64 -288 21 -86 114 -154 202 -146 53 5 116 41 143 82 39
59 41 101 11 232 -41 188 -54 255 -76 405 -6 39 -12 81 -15 95 -2 14 -7 54
-10 90 -4 36 -8 81 -10 100 -17 154 -22 455 -11 558 3 26 8 76 12 112 3 36 7
67 9 70 2 3 6 26 10 50 7 52 51 211 70 255 8 17 28 64 45 106 30 74 105 214
158 294 319 482 777 790 1327 891 129 23 151 25 355 29 349 7 647 -60 945
-212 98 -50 218 -123 223 -135 2 -4 8 -8 13 -8 9 0 103 -69 169 -125 19 -16
89 -84 155 -150 264 -264 471 -603 545 -890 80 -312 40 -643 -104 -863 -60
-93 -119 -147 -205 -190 -67 -33 -84 -37 -160 -39 -77 -1 -111 2 -216 22 -64
12 -173 75 -220 127 -84 93 -118 176 -204 493 -104 383 -152 488 -286 626 -98
101 -201 159 -357 201 -73 20 -106 22 -273 22 -172 -1 -199 -3 -285 -26 -159
-43 -273 -105 -371 -201 -189 -183 -278 -427 -284 -777 -1 -86 1 -183 6 -215
4 -33 10 -87 14 -120 17 -159 60 -320 120 -450 56 -121 235 -429 265 -455 3
-3 17 -21 30 -40 90 -132 326 -381 465 -491 75 -60 195 -143 260 -179 22 -13
59 -33 81 -46 131 -73 402 -172 499 -181 50 -4 68 -2 102 16 96 48 134 159 88
255 -26 55 -66 79 -210 125 -434 138 -799 438 -1079 885 -66 104 -167 302
-189 366 -55 164 -84 464 -64 651 39 356 227 519 585 508 232 -7 343 -83 426
-292 21 -54 102 -332 121 -418 9 -44 78 -237 91 -256 7 -12 14 -27 14 -34 0
-18 103 -170 154 -226 96 -106 245 -192 406 -235 157 -41 383 -45 508 -9 553
159 837 879 630 1596 -65 226 -195 478 -367 709 -284 383 -657 682 -1071 858
-83 36 -283 105 -324 112 -12 2 -39 9 -61 14 -48 13 -78 19 -170 33 -38 5 -83
12 -100 15 -38 7 -489 16 -495 10z"/>
<path d="M3329 4396 c-2 -2 -30 -6 -62 -10 -644 -68 -1106 -430 -1326 -1038
-42 -117 -89 -329 -108 -488 -10 -82 -10 -414 -1 -500 40 -349 167 -759 336
-1080 150 -287 476 -709 571 -742 72 -24 167 -2 213 49 26 29 48 88 48 130 -1
55 -26 102 -101 185 -260 286 -441 595 -562 958 -32 95 -77 266 -91 345 -40
215 -51 416 -34 585 26 266 125 567 239 732 173 248 411 404 706 462 128 25
162 28 312 31 258 3 454 -43 646 -154 298 -172 532 -527 640 -971 14 -58 28
-127 31 -155 16 -143 137 -231 258 -188 99 34 145 122 126 239 -15 92 -21 119
-46 218 -168 665 -561 1138 -1088 1311 -59 19 -121 37 -138 40 -17 3 -34 7
-37 9 -3 2 -31 7 -61 11 -30 4 -59 10 -64 13 -10 6 -401 13 -407 8z"/>
<path d="M3465 2849 c-100 -22 -168 -106 -159 -195 8 -82 16 -139 19 -144 2
-3 6 -21 9 -40 9 -56 45 -186 75 -275 224 -645 710 -1045 1351 -1111 94 -10
308 -10 419 -1 145 12 218 68 229 176 6 63 -10 110 -53 153 -49 49 -96 60
-208 51 -268 -21 -476 4 -677 82 -271 104 -473 296 -615 584 -74 151 -144 376
-161 520 -8 65 -17 93 -45 132 -36 51 -122 82 -184 68z"/>
</g>
</svg>
